<svg version="1" xmlns="http://www.w3.org/2000/svg" width="2730.667" height="2730.667" viewBox="0 0 2048.000000 2048.000000"><path d="M0 1024v1024h2048V0H0v1024zm1504.4-544.5c22.1 2.9 34.6 8.8 34.6 16.2 0 37.2-184.8 270.9-377 476.8-26.9 28.9-35.7 37.5-59 58.6-128.1 115.3-234 181.2-312.2 194.4l-3.7.6 5.1-9.3c25.8-47 63.9-104.1 114.8-172.3 32.6-43.6 98.6-128.5 99.9-128.5.3 0 5.6 3 11.6 6.5 12.9 7.7 16.5 8.8 26 8.3 12.4-.7 26.5-7.9 38.2-19.5 7-6.9 9.1-10.7 7.9-13.8-.4-1.2-2.4-1.5-9.1-1.5-6 0-10-.6-13.6-1.9-5.2-2-30.5-16.6-31.5-18.2-.8-1.3 43.4-59.4 76.4-100.4 48.8-60.6 81.8-91.3 110.5-102.7 7.4-2.9 9.3-3.2 18.7-3.3 10.2 0 10.7.1 19 4 11.7 5.6 14.6 5.4 28-1.6 11.9-6.2 21-14.1 21-18.3 0-1.8-.6-2.7-2.2-3.1-1.3-.3-8.8-2.1-16.8-4.1-34.9-8.5-52.3-6.9-80 7.2-43 21.9-87.4 61.3-144.4 128.3-15.2 17.9-52.5 64.2-57.5 71.4-1.8 2.6-3.5 4.6-3.9 4.3-.4-.2-5-3-10.2-6.1-11.9-7.2-15.6-8.5-23.9-8.5-14.8.1-38.2 13.1-46.7 26-1.4 2.1-2.4 4.9-2.2 6.2.3 2.2.7 2.3 9.3 2.4 11.2.1 13.8 1.1 31.1 11.5l13.4 8-2.7 3.3c-1.6 1.8-11.6 12.9-22.4 24.7-141.1 154.3-247.6 305.3-314.4 445.9-26.8 56.5-44.1 99.9-72.5 182.5-21.1 61.3-21 60.8-23.6 63.3-3.1 2.8-7.3 2.8-10.8.1-3.2-2.5-3.3-5.9-1.1-26.5 15.7-148.7 65.9-302.5 140.3-429.6l3.9-6.7-1.8-7.2c-3.2-12.9-4.4-25-4.3-44.9.2-49.3 14-104 42-166.7 10.7-24.2 35.4-70.2 40.6-75.9 2.5-2.8 5.8-3.4 9.6-1.9 2.6 1.1 6.4 8.1 31.2 57 15.5 30.6 28.4 55.4 28.6 55.2.3-.3-3.4-32.9-8.1-72.5-4.7-39.6-8.5-75.4-8.5-79.5 0-14.2 4.1-31.1 10.8-44.3 6.3-12.5 24.5-33.5 55-63.7 15.7-15.5 17.2-16.7 20.6-16.7 7 0 7.1.3 19.3 48.5 6.2 24.2 12.4 48.9 14 55 2.4 9.6 2.8 10.6 3.5 8 .4-1.7 3.5-29.4 6.8-61.8 3.7-35.7 6.9-62 8.1-67 2.6-10.3 10.2-26.2 16.7-34.7 10.9-14.4 24.1-24.1 61.7-45.3 88.7-50 208.9-89.7 328-108.3 27.2-4.2 30.7-4.3 34.2-.8 2 2 2.4 3.2 2 5.7-.3 1.8-9.1 18.9-19.6 38.1-10.6 19.2-19 35-18.9 35.2.2.1 17.6-14.8 38.8-33.3 21.2-18.4 41-35.2 44-37.3 21.9-14.9 45.8-19.6 77.4-15.5z"/></svg>