<svg height="835.42556" viewBox="0 0 1136.62628 835.42556" width="1136.62628" xmlns="http://www.w3.org/2000/svg"><path d="m840.8275 654.79139-6.8275 24.20861h28c-3.99939-9.56384-5.022-18.64551-1.55554-27z" fill="#ffb8b8" transform="translate(-31.68686 -32.28722)"/><path d="m1168.31314 866.56522c0 .37864-.01149.76884-.03446 1.14756h-1136.01804c-.023-.37872-.03446-.76892-.03446-1.14756 0-57.59617 254.32282-104.279 568.04348-104.279s568.04348 46.68283 568.04348 104.279z" fill="#3f3d56" transform="translate(-31.68686 -32.28722)"/><circle cx="950.72114" cy="718.37418" fill="#d0cde1" r="63.11594"/><ellipse cx="954.16383" cy="672.47167" fill="#059669" rx="42.45982" ry="17.21344"/><circle cx="956.45895" cy="633.45455" fill="#d0cde1" r="40.16469"/><circle cx="944.24182" cy="619.68379" fill="#575a89" r="6.14387"/><circle cx="965.23339" cy="619.68379" fill="#575a89" r="6.14387"/><path d="m984.70313 660.004-1.67673 20.1207a.74959.74959 0 0 0 1.46661.27214l5.94793-20.39289z" fill="#ff6584" transform="translate(-31.68686 -32.28722)"/><path d="m916.882 801.169-7.303 7.303-40.335-47.638.978-6.326z" fill="#575a89"/><path d="m885.31 778.047v4.591l-36.722-2.295-3.443-2.296z" fill="#575a89"/><ellipse cx="913.99914" cy="700.01318" fill="#d0cde1" rx="10.32806" ry="11.47563"/><path d="m1000.626 699.036 7.303 7.303 40.335-47.638-.977-6.326z" fill="#575a89"/><path d="m1021.87 681.652v4.59l36.722-2.295 3.443-2.295z" fill="#575a89"/><ellipse cx="1003.50902" cy="700.01318" fill="#d0cde1" rx="10.32806" ry="11.47563"/><circle cx="954.16383" cy="704.60343" fill="#575a89" r="4.59025"/><circle cx="954.16383" cy="719.52174" fill="#575a89" r="4.59025"/><circle cx="954.16383" cy="734.44005" fill="#575a89" r="4.59025"/><path d="m787.46208 778.19284a24.07985 24.07985 0 0 0 -42.908-16.11077 24.13267 24.13267 0 0 0 -10.47231-8.8624 24.09511 24.09511 0 0 0 -41.13628-22.34867 56.15789 56.15789 0 0 0 -20.02891-12.77661 24.08569 24.08569 0 0 0 -46.20582-12.57361 24.06727 24.06727 0 0 0 -36.09953 28.67068 24.11768 24.11768 0 0 0 -7.71824 4.63444 24.07711 24.07711 0 0 0 -29.72407 11.56185 24.11939 24.11939 0 0 0 -7.78765-5.74135c.07093-.58976.145-1.17868.17289-1.78151a24.09882 24.09882 0 1 0 -47.901 2.46091 23.85594 23.85594 0 0 0 -17.4598 25.4712c-27.04278.79374-53.125 2.06108-78.04945 3.77433a56.2381 56.2381 0 0 0 -103.52416-11.34094 24.08792 24.08792 0 0 0 -37.0275 27.83146q-1.63636.29411-3.25894.59167c.03843-.39992.09752-.79327.11632-1.199a24.09882 24.09882 0 1 0 -48.146-2.22975c-.01157.24985.007.49339.00309.7417a14.90545 14.90545 0 0 0 -20.18092 13.25812c-.08755 1.88965 597.29286-23.0944 597.33628-24.03175z" fill="#d0cde1" transform="translate(-31.68686 -32.28722)"/><path d="m40.22549 418.76859c.03292-.10465.06766-.21062.10072-.31561-.01429.046-.03222.09028-.04622.13644z" fill="#2f2e41" transform="translate(-31.68686 -32.28722)"/><path d="m589.05567 731.61849 84.99756-126.39988-84.82372 139.99807.17738 14.22316q-9.30774.071-18.43465-.31l4.21568-182.82936-.11549-1.41046.15555-.27252.40349-17.27627-93.08234-135.14472 92.97252 122.21449.32993 3.65166 3.18419-138.13472-80.39806-140.11418 80.627 115.84783-.84157-286.17954.0018-.95251.02735.93676 5.337 225.548 73.27323-91.61772-73.03331 111.04817 1.59924 123.5583 67.42643-120.58822-67.17862 138.75341.89022 68.70463 98.05625-167.978-97.75815 191.94613z" fill="#3f3d56" transform="translate(-31.68686 -32.28722)"/><g fill="#d0cde1"><circle cx="538.74617" cy="339.67852" r="9.1805"/><circle cx="598.41943" cy="479.68116" r="9.1805"/><circle cx="520.38517" cy="510.66535" r="9.1805"/><circle cx="490.54854" cy="367.22003" r="9.1805"/><path d="m584.2038 381.14625a9.17238 9.17238 0 0 0 -4.67548-7.99408 9.1766 9.1766 0 1 0 -13.60034 6.80762 8.989 8.989 0 0 0 1.80475 6.75006 9.184 9.184 0 1 0 15.7287-1.94665 9.14637 9.14637 0 0 0 .74237-3.61695z" transform="translate(-31.68686 -32.28722)"/><path d="m601.41724 288.19368a9.18052 9.18052 0 0 0 -9.18055 9.18048 9.17586 9.17586 0 0 0 -8.89068 6.92871 9.17856 9.17856 0 1 0 9.74847 11.389 9.1789 9.1789 0 0 0 8.32276-9.1372 9.18048 9.18048 0 0 0 0-18.361z" transform="translate(-31.68686 -32.28722)"/><circle cx="375.79229" cy="403.94203" r="6.88538"/><circle cx="450.38385" cy="486.56653" r="6.88538"/><circle cx="785.47213" cy="168.6917" r="9.1805"/><circle cx="855.47344" cy="63.11594" r="6.88538"/><circle cx="930.06501" cy="145.74045" r="6.88538"/><circle cx="1023.01758" cy="335.08827" r="9.1805"/><circle cx="899.99914" cy="242.25033" r="6.88538"/><circle cx="706.29031" cy="486.56653" r="9.1805"/><circle cx="815.30875" cy="496.8946" r="6.88538"/><circle cx="139.39439" cy="195.08564" r="9.1805"/><circle cx="130.21389" cy="123.93676" r="6.88538"/><circle cx="123.32852" cy="626.56917" r="6.88538"/><circle cx="391.85816" cy="648.37286" r="6.88538"/><circle cx="946.13089" cy="515.2556" r="9.1805"/><circle cx="1078.10059" cy="574.92885" r="6.88538"/><circle cx="319.56172" cy="271.97233" r="6.88538"/><circle cx="697.10981" cy="616.24111" r="9.1805"/><circle cx="375.79229" cy="6.88538" r="6.88538"/><circle cx="450.38385" cy="89.50988" r="6.88538"/><circle cx="434.31798" cy="179.01976" r="6.88538"/><circle cx="644.32193" cy="67.70619" r="9.1805"/><circle cx="715.93063" cy="274.08696" r="6.88538"/><circle cx="883.01495" cy="397.05665" r="6.88538"/><circle cx="180.70665" cy="393.61397" r="6.88538"/><circle cx="77.42601" cy="525.58366" r="6.88538"/><circle cx="336.77516" cy="423.45059" r="18.361"/></g><path d="m878.998 644.93 10.329-10.328 5.737 5.738-9.18 14.918z" fill="#ffb8b8"/><path d="m915.27559 666.88933 6.88537-4.59025s17.21344-22.95125 24.09882-11.47563-12.62319 22.95125-12.62319 22.95125l-5.73781 6.88538z" fill="#ff6584" transform="translate(-31.68686 -32.28722)"/><path d="m915.27559 666.88933 6.88537-4.59025s17.21344-22.95125 24.09882-11.47563-12.62319 22.95125-12.62319 22.95125l-5.73781 6.88538z" opacity=".15" transform="translate(-31.68686 -32.28722)"/><path d="m821.62 656.406h36.722l21.804-14.919 12.623 17.214-29.836 22.951-30.985 5.738z" fill="#059669"/><path d="m821.62 656.406h36.722l21.804-14.919 12.623 17.214-29.836 22.951-30.985 5.738z" opacity=".15"/><path d="m868.22552 753.5303s33.27932 36.722 27.54151 45.90251-18.361 9.1805-20.65613 8.03293-35.57444-19.50856-35.57444-19.50856l4.59025-14.91831s-6.88538-16.06588 0-17.21344 24.09881-2.29513 24.09881-2.29513z" fill="#2f2e41" transform="translate(-31.68686 -32.28722)"/><path d="m846.42183 773.03887s-21.80368-17.21344-26.39394-13.77075-19.50856 25.24637-17.21343 35.57444 0 13.77075 6.88537 12.62318 8.03294-12.62318 8.03294-12.62318l24.09881-9.1805z" fill="#2f2e41" transform="translate(-31.68686 -32.28722)"/><path d="m865.3565 769.55211h1.14779v29.92477h-1.14779z" opacity=".15" transform="matrix(.53687546 -.84366151 .84366151 .53687546 -292.51794 1061.5928)"/><circle cx="821.62035" cy="612.22464" fill="#ffb8b8" r="17.21344"/><path d="m832.65108 664.02042s-4.59025 11.47563-4.59025 39.01713-16.06583 40.16469-3.44268 53.93545 62.38185 5.027 62.38185 5.027-.53662.42529-.41348-.43676c1.14757-8.03294-11.47562-91.805-16.06587-92.95257s-37.86957-4.59025-37.86957-4.59025z" fill="#059669" transform="translate(-31.68686 -32.28722)"/><path d="m878.998 625.995 10.329-10.328 5.737 5.738-9.18 14.918z" fill="#ffb8b8"/><path d="m820.529 643.156c-3.80065.55714-7.99684.98195-10.68766 2.14211-3.53042 1.52215-3.32455 3.80625-2.36622 5.80036s2.45754 4.07079.85762 6.00485c-.92992 1.12414-2.833 2.08857-4.31839 3.12339s-2.5787 2.251-1.70086 3.3812c.91713 1.1807 3.72572 1.97977 5.69857 2.95728 4.2627 2.11208 4.32318 5.29969.14107 7.4348 3.59949-2.16635 10.46772-3.13187 16.76749-4.05427s13.06882-2.147 15.71068-4.50326c2.69414-2.40295.18889-5.20075 1.58715-7.7574 1.19537-2.18568 5.09924-3.98644 8.21831-5.87964s5.57587-4.2267 3.52393-6.31891c-1.51409-1.54381-5.389-2.89143-4.65208-4.51464.45579-1.004 2.58869-1.75343 4.12042-2.5905s2.38586-2.08962.45611-2.79859c-7.00833 1.264-14.1427 2.45906-21.05408 3.79723-4.26292.82539-6.7874 3.77599-12.30206 3.77599z" fill="#2f2e41" transform="translate(-31.68686 -32.28722)"/><path d="m821.62 637.471h36.722l21.804-14.918 12.623 17.213-29.836 22.951-30.985 5.738z" fill="#059669"/><path d="m946.13779 663.44664s32.13176-16.06588 32.13176-21.80369-12.62319-22.95125-35.57444-22.95125c0 0-5.73782-10.32806-12.62319-2.29513s3.44269 13.77076 3.44269 13.77076-12.62319 20.65612 5.73781 33.27931z" fill="#059669" transform="translate(-31.68686 -32.28722)"/><circle cx="632.8463" cy="424.59816" fill="#ff6584" r="18.361"/><path d="m620.705 424.859-5.255-7.017.919-.688 4.52 6.035 7.941-6.805 8.003 6.859 6.915-6.915 7.291 7.291-.811.811-6.48-6.48-6.855 6.855-8.063-6.911z" fill="#575a89"/><path d="m619.569 433.933-5.207-6.956.801-.599 4.566 6.099 7.953-6.816 8.007 6.863 6.911-6.912 7.24 7.239-.708.707-6.532-6.532-6.858 6.86-8.06-6.909z" fill="#575a89"/><path d="m631.69874 393.04018h1.14756v13.77075h-1.14756z" fill="#575a89"/><circle cx="598.41943" cy="274.26746" fill="#ff6584" r="18.361"/><path d="m586.278 274.529-5.255-7.018.919-.688 4.52 6.036 7.941-6.806 8.003 6.86 6.915-6.916 7.291 7.291-.811.811-6.48-6.479-6.855 6.855-8.063-6.911z" fill="#575a89"/><path d="m585.142 283.601-5.207-6.954.801-.6 4.566 6.1 7.954-6.817 8.006 6.863 6.911-6.911 7.24 7.239-.707.707-6.533-6.532-6.858 6.86-8.059-6.909z" fill="#575a89"/><path d="m597.27186 242.70949h1.14756v13.77075h-1.14756z" fill="#575a89"/><circle cx="457.26923" cy="430.33597" fill="#ff6584" r="18.361"/><path d="m445.128 430.597-5.255-7.018.919-.688 4.52 6.036 7.941-6.806 8.002 6.86 6.916-6.916 7.291 7.292-.811.811-6.48-6.48-6.855 6.855-8.063-6.911z" fill="#575a89"/><path d="m443.992 439.67-5.207-6.954.801-.6 4.566 6.099 7.953-6.816 8.007 6.863 6.912-6.912 7.238 7.239-.707.707-6.531-6.531-6.859 6.858-8.06-6.907z" fill="#575a89"/><path d="m456.12167 398.778h1.14756v13.77075h-1.14756z" fill="#575a89"/><path d="m563.405 93.16-15.637-11.734-15.992 11.246 6.328-18.498-15.638-11.735 19.548.302 6.328-18.498 5.754 18.685 19.548.302-15.992 11.246z" fill="#059669"/><path d="m788.58 766.7521a24.07986 24.07986 0 0 0 -42.908-16.11078 24.13261 24.13261 0 0 0 -10.47231-8.8624 24.0951 24.0951 0 0 0 -41.13627-22.34863 56.15786 56.15786 0 0 0 -20.02892-12.7766 24.08569 24.08569 0 0 0 -46.20582-12.57362 24.06727 24.06727 0 0 0 -36.09953 28.67068 24.1177 24.1177 0 0 0 -7.71824 4.63445 24.07707 24.07707 0 0 0 -29.72408 11.5618 24.11975 24.11975 0 0 0 -7.78764-5.74135c.07092-.58976.145-1.17868.17288-1.78151a24.09882 24.09882 0 1 0 -47.901 2.46091 23.85585 23.85585 0 0 0 -17.45974 25.47115c-27.04279.79374-53.125 2.06108-78.04946 3.77434a56.2381 56.2381 0 0 0 -103.52416-11.341 24.08792 24.08792 0 0 0 -37.0275 27.83146q-1.63636.29412-3.25894.59168c.03843-.39992.09753-.79327.11632-1.199a24.09882 24.09882 0 1 0 -48.146-2.22975c-.01157.24985.007.49339.0031.7417a14.90549 14.90549 0 0 0 -20.18093 13.25813c-.0876 1.88974 597.29282-23.09432 597.33624-24.03166z" fill="#d0cde1" transform="translate(-31.68686 -32.28722)"/><path d="m203.70645 867.43738a26.06 26.06 0 0 1 2.70823.2754h-7.58537a22.85644 22.85644 0 0 1 4.87714-.2754z" fill="#d0cde1" transform="translate(-31.68686 -32.28722)"/><path d="m313.22983 867.71278h-93.34271a56.211 56.211 0 0 1 93.34271 0z" fill="#d0cde1" transform="translate(-31.68686 -32.28722)"/><path d="m125.02956 867.71278h-93.3427a56.211 56.211 0 0 1 93.3427 0z" fill="#d0cde1" transform="translate(-31.68686 -32.28722)"/><path d="m180.11257 867.71278h-93.3427a56.211 56.211 0 0 1 93.3427 0z" fill="#d0cde1" transform="translate(-31.68686 -32.28722)"/><path d="m439.46171 814.9249h-93.34271a56.211 56.211 0 0 1 93.3427 0z" fill="#d0cde1" transform="translate(-31.68686 -32.28722)"/><path d="m813.56711 841.31884h-93.3427a56.211 56.211 0 0 1 93.3427 0z" fill="#d0cde1" transform="translate(-31.68686 -32.28722)"/><path d="m652.57558 862.27334a24.43565 24.43565 0 0 1 7.75754 5.43944h-259.682a24.17946 24.17946 0 0 1 15.49209-13.33467 23.53519 23.53519 0 0 1 -.24094-4.69356 24.09609 24.09609 0 1 1 48.14019 2.23776c-.0229.59675-.09175 1.18195-.17209 1.77871a24.03015 24.03015 0 0 1 7.79192 5.73781 24.08484 24.08484 0 0 1 29.7219-11.556 24.02937 24.02937 0 0 1 7.72308-4.63612 23.807 23.807 0 0 1 -1.68689-9.9953 24.07211 24.07211 0 0 1 37.78923-18.68228 24.08842 24.08842 0 0 1 46.47628 9.94935 24.86621 24.86621 0 0 1 -.2754 2.62789 56.2102 56.2102 0 0 1 20.02491 12.77238 24.09008 24.09008 0 0 1 41.14016 22.35456z" fill="#d0cde1" transform="translate(-31.68686 -32.28722)"/><path d="m909.664 867.71278h-44.2959a24.09135 24.09135 0 0 1 44.29589 0z" fill="#d0cde1" transform="translate(-31.68686 -32.28722)"/><path d="m1095.84453 867.71278h-139.85344a23.24664 23.24664 0 0 1 -1.02128-8.0674 24.07211 24.07211 0 0 1 37.78919-18.68228 24.08842 24.08842 0 0 1 46.47628 9.94935 24.86885 24.86885 0 0 1 -.2754 2.62789 56.21029 56.21029 0 0 1 20.02491 12.77238 24.09955 24.09955 0 0 1 36.8597 1.40006z" fill="#d0cde1" transform="translate(-31.68686 -32.28722)"/><path d="m697.42228 867.71278h-31.03007a24.02261 24.02261 0 0 1 31.03007 0z" fill="#d0cde1" transform="translate(-31.68686 -32.28722)"/><circle cx="256.0696" cy="482.12957" fill="#a0616a" r="20.44617"/><path d="m292.56721 488.34605c7.28469.45635 14.04371 3.83473 20.36077 7.49118a2.63686 2.63686 0 0 0 -3.18293.62814c-.84281.81713-1.37256 1.90844-2.18371 2.757-1.50766 1.57719-3.76919 2.1229-5.899 2.59674l-9.92639 2.20847-9.20638 2.04828a18.71819 18.71819 0 0 1 -7.05026.64793c-2.34334-.3863-4.66277-1.89806-5.27513-4.19261-.85075-3.18785 5.48706-7.932 7.81111-9.85151a21.10291 21.10291 0 0 1 14.55192-4.33362z" fill="#2f2e41" transform="translate(-31.68686 -32.28722)"/><path d="m273.86424 505.07534c4.29151-6.02636 10.98949-9.94443 17.70816-13.32374-1.13045.44739-1.41757 1.9119-1.11446 3.10176s1.02464 2.26492 1.37347 3.44527c.64835 2.19389-.05212 4.454-.74862 6.55984l-3.24621 9.81456-3.01074 9.10266a17.85441 17.85441 0 0 1 -3.15187 6.44947 6.55158 6.55158 0 0 1 -6.65767 2.17676c-3.38242-1.07132-4.37445-9.22587-4.90349-12.31792a20.47861 20.47861 0 0 1 3.75143-15.00866z" fill="#2f2e41" transform="translate(-31.68686 -32.28722)"/><path d="m376.75742 498.78149s1.20271-26.45974 7.21629-25.257 1.20272 27.66246 1.20272 27.66246z" fill="#a0616a" transform="translate(-31.68686 -32.28722)"/><path d="m375.55665 544.48554-27.02247 19.57091-7.85988 5.68846-20.4432-28.86918 12.75958-5.02958 26.9297-10.60669 15.63627-31.27259 13.22357 3.60981c2.41278 6.01323-13.22357 46.90886-13.22357 46.90886z" fill="#575a89" transform="translate(-31.68686 -32.28722)"/><path d="m333.45965 492.76791s-3.60814-31.2706 3.60815-28.86517 6.01358 32.47332 6.01358 32.47332z" fill="#a0616a" transform="translate(-31.68686 -32.28722)"/><path d="m246.996 740.808-6.94 18.149 19.333 5.719-.368-24.051z" fill="#575a89"/><path d="m304.028 616.042-19.23 79.683-18.469 50.802-24.052.368 21.856-65.289 8.518-72.301z" fill="#2f2e41"/><path d="m269.048 789.26657s-7.32217 15.586-2.38486 17.71989 18.34752 5 18.34752 5l1.841-1.54814s30.98367 6.9455 36.17195-3.70319-19.16349-15.31387-19.16349-15.31387l-11.1299-9.498-13.36822 6.52734z" fill="#2f2e41" transform="translate(-31.68686 -32.28722)"/><path d="m221.686 737.587-6.939 18.149 19.333 5.719-.368-24.052z" fill="#575a89"/><path d="m245.978 611.51-7.099 70.483-21.966 58.073 20.554 6.902 31.532-61.827 14.548-71.191z" fill="#2f2e41"/><path d="m242.43832 786.71567s-11.47546 12.83944-7.35509 16.29676 16.15 10.04044 16.15 10.04044l2.207-.95668s27.70118 15.52 35.71933 6.801-13.98084-20.15666-13.98084-20.15666l-7.9471-12.28533-14.677 2.4296z" fill="#2f2e41" transform="translate(-31.68686 -32.28722)"/><path d="m348.53418 564.05645-7.85988 5.68846-20.4432-28.86918 5.68846-1.01146c.31553.51966 5.243.38973 5.56782.928 5.96684 9.77146 14.56913 18.03042 17.0468 23.26418z" opacity=".15" transform="translate(-31.68686 -32.28722)"/><path d="m361.18241 660.50034c-1.39237-.90065-1.71661-10.31336-3.71188-11.13564-1.0125-.41727-3.49053 7.72711-4.63912 7.3297-29.82037-10.3178-96.48125 11.80027-107.64522-12.89752-7.50591-16.60517 40.16256-48.802 40.16256-60.8284a35.33917 35.33917 0 0 0 -1.65181-9.01061c-2.27354-7.962-6.50508-17.98406-9.92-25.547-2.92313-6.47722-5.26158-11.14487-5.26158-11.14487s35.068-10.42114 46.30566-14.4485c1.42911-.51043 2.46843-.91868 3.00667-1.18783 2.15284-1.07642 7.68356 6.533 13.35344 15.80335 6.97835 11.42331 14.17941 25.38 15.5064 28.7021 2.40341 6.0132 34.93808 107.59802 14.49488 94.36522z" fill="#575a89" transform="translate(-31.68686 -32.28722)"/><path d="m326.84753 535.22442c-13.01939 15.67337-27.03176 34.40908-39.09537 37.95393a20.03225 20.03225 0 0 1 -4.05522.77952c-2.27354-7.962-6.50508-17.98406-9.92-25.547a16.405 16.405 0 0 1 4.90894-3.684l32.61812-16.05387 3.517-5.85549c1.42911-.51043 2.46843-.91868 3.00667-1.18783 2.15286-1.07646 3.34998 4.32432 9.01986 13.59474z" opacity=".15" transform="translate(-31.68686 -32.28722)"/><path d="m278.6852 540.08779c-8.90871 4.38556-12.15467 15.7834-6.38316 23.8635 2.995 4.19306 7.78711 6.8428 15.45442 4.5877 20.44617-6.01357 58.93307-49.31134 58.93307-62.54121v-12.02715l-14.43259-4.81087-20.954 34.871z" fill="#575a89" transform="translate(-31.68686 -32.28722)"/><ellipse cx="330.55941" cy="542.64818" fill="#2f2e41" rx="1.85594" ry="3.71188" transform="matrix(.81396164 -.58091863 .58091863 .81396164 -285.42458 260.6943)"/><ellipse cx="336.12723" cy="552.85585" fill="#2f2e41" rx="1.85594" ry="3.71188" transform="matrix(.81396164 -.58091863 .58091863 .81396164 -290.31857 265.82777)"/><ellipse cx="340.76707" cy="563.99148" fill="#2f2e41" rx="1.85594" ry="3.71188" transform="matrix(.81396164 -.58091863 .58091863 .81396164 -295.92428 270.5948)"/><ellipse cx="343.55098" cy="575.12712" fill="#2f2e41" rx="1.85594" ry="3.71188" transform="matrix(.9462743 -.32336503 .32336503 .9462743 -199.20532 109.70423)"/><ellipse cx="347.26286" cy="586.26276" fill="#2f2e41" rx="1.85594" ry="3.71188" transform="matrix(.9462743 -.32336503 .32336503 .9462743 -202.60677 111.50279)"/><ellipse cx="350.97474" cy="596.47042" fill="#2f2e41" rx="1.85594" ry="3.71188" transform="matrix(.9462743 -.32336503 .32336503 .9462743 -205.70815 113.2515)"/><ellipse cx="352.83068" cy="607.60606" fill="#2f2e41" rx="1.85594" ry="3.71188" transform="matrix(.9462743 -.32336503 .32336503 .9462743 -209.20932 114.44992)"/><ellipse cx="354.68662" cy="618.7417" fill="#2f2e41" rx="1.85594" ry="3.71188" transform="matrix(.9462743 -.32336503 .32336503 .9462743 -212.71048 115.64833)"/><ellipse cx="356.54256" cy="630.80531" fill="#2f2e41" rx="1.85594" ry="3.71188" transform="matrix(.9462743 -.32336503 .32336503 .9462743 -216.51172 116.8966)"/><ellipse cx="357.47053" cy="642.86891" fill="#2f2e41" rx="1.85594" ry="3.71188" transform="matrix(.9462743 -.32336503 .32336503 .9462743 -220.36281 117.8448)"/><path d="m277.01854 526.76215s27.47234-32.02552 24.85958-38.23768-24.1178-19.10055-48.96643-8.64949c0 0-10.91514-8.56912-14.71186 3.26321s9.99793 13.34152 9.99793 13.34152-4.2608 28.11185 21.36619 33.41775z" fill="#059669" transform="translate(-31.68686 -32.28722)"/><circle cx="690.22443" cy="748.2108" fill="#ff6584" r="18.361"/><path d="m678.083 748.472-5.255-7.018.919-.688 4.52 6.036 7.941-6.806 8.003 6.86 6.915-6.916 7.291 7.291-.811.812-6.48-6.48-6.855 6.855-8.063-6.911z" fill="#575a89"/><path d="m676.947 757.545-5.207-6.955.801-.6 4.566 6.1 7.953-6.816 8.007 6.863 6.912-6.912 7.238 7.239-.707.707-6.531-6.531-6.859 6.858-8.06-6.907z" fill="#575a89"/><path d="m689.07687 716.65283h1.14756v13.77075h-1.14756z" fill="#575a89"/><circle cx="628.8081" cy="747.56493" fill="#059669" r="18.361"/><path d="m617.968 753.039-7.769-4.063.532-1.017 6.682 3.495 4.227-9.566 10.18 2.735 3.254-9.223 9.724 3.431-.382 1.082-8.642-3.049-3.226 9.142-10.256-2.756z" fill="#575a89"/><path d="m620.399 760.74-7.226-3.084.392-.92 6.387 2.727 4.673-8.676 9.748 1.818 3.694-8.289 9.152 2.428-.255.967-8.331-2.209-3.668 8.23-9.805-1.828z" fill="#575a89"/><path d="m648.75761 750.95676h1.14756v13.77075h-1.14756z" fill="#575a89" transform="matrix(.90211815 -.43148911 .43148911 .90211815 -295.12976 322.07127)"/><circle cx="463.87069" cy="737.22413" fill="#059669" r="18.361"/><path d="m452.335 733.43-2.62-8.366 1.095-.343 2.254 7.195 9.753-3.775 5.264 9.132 8.822-4.22 4.45 9.302-1.036.495-3.954-8.267-8.745 4.183-5.304-9.2z" fill="#575a89"/><path d="m476.247 751.094-3.986-8.333-8.751 4.184-5.301-9.195-9.965 3.857-2.595-8.291.954-.299 2.276 7.272 9.769-3.781 5.266 9.136 8.818-4.217 4.417 9.235z" fill="#575a89"/><path d="m496.34176 745.4803h13.77075v1.14756h-13.77075z" fill="#575a89" transform="matrix(.33278498 -.94300273 .94300273 .33278498 -399.45718 940.03591)"/><ellipse cx="883.1228" cy="728.77012" fill="#575a89" rx="1.7072" ry="5.73781" transform="matrix(.98767788 -.15650049 .15650049 .98767788 -134.85776 114.90186)"/><ellipse cx="880.82768" cy="712.70425" fill="#575a89" rx="1.7072" ry="5.73781" transform="matrix(.98767788 -.15650049 .15650049 .98767788 -132.37173 114.34471)"/><ellipse cx="885.41793" cy="743.68844" fill="#575a89" rx="1.7072" ry="5.73781" transform="matrix(.98767788 -.15650049 .15650049 .98767788 -137.1642 115.44487)"/><ellipse cx="886.56549" cy="757.45919" fill="#575a89" rx="1.7072" ry="5.73781" transform="matrix(.99565524 -.09311628 .09311628 .99565524 -98.36678 53.55751)"/><ellipse cx="911.81187" cy="666.80174" fill="#575a89" rx="5.73781" ry="1.7072" transform="matrix(.70710678 -.70710678 .70710678 .70710678 -236.12338 807.76284)"/><path d="m869.72291 637.58638c-2.42563-.27518-4.499 1.61722-6.20073 3.36754a37.55222 37.55222 0 0 1 -4.64957 4.27385 19.09966 19.09966 0 0 1 -17.47217 2.48461c.14351.05214 5.5509-7.109 6.147-7.76774a75.27578 75.27578 0 0 1 7.25083-7.006c1.92426-1.62461 4.57153-4.40794 7.32565-3.20174 2.89808 1.26929 5.53965 5.51731 7.59899 7.84948z" fill="#2f2e41" transform="translate(-31.68686 -32.28722)"/><path d="m836.09377 652.5448s32.13175-16.06588 32.13175-21.80369-12.62319-22.95125-35.57444-22.95125c0 0-5.73781-10.32807-12.62319-2.29513s3.44269 13.77075 3.44269 13.77075-12.62319 20.65613 5.73782 33.27932z" fill="#575a89" transform="translate(-31.68686 -32.28722)"/><path d="m875.9364 636.39727c-2.42563-.27518-4.499 1.61721-6.20073 3.36753a37.55 37.55 0 0 1 -4.64957 4.27385 19.09966 19.09966 0 0 1 -17.47217 2.48462c.14351.05213 5.5509-7.109 6.147-7.76774a75.27469 75.27469 0 0 1 7.25084-7.00595c1.92426-1.62462 4.57153-4.40794 7.32565-3.20174 2.89809 1.26924 5.53964 5.51726 7.59898 7.84943z" fill="#575a89" transform="translate(-31.68686 -32.28722)"/><path d="m946.25978 631.88867c-3.65407-6.09012-10.21677-2.484-15.57187 2.24189-.26126-2.94112-1.15268-5.1108-2.21535-5.1108-1.26755 0-2.29513 3.08268-2.29513 6.88538a19.44979 19.44979 0 0 0 .16019 2.51463c-2.50665 2.71846-4.17666 4.94453-4.17666 4.94453l-6.88537 4.59025 12.62319 13.77075 5.73781-6.88538s19.50856-11.47562 12.62319-22.95125z" fill="#ff6584" transform="translate(-31.68686 -32.28722)"/><circle cx="786.61969" cy="570.3386" fill="#575a89" r="4.59025"/><path d="m845 729v7.5a10.5 10.5 0 0 0 21 0v-7.5z" fill="#059669" transform="translate(-31.68686 -32.28722)"/><path d="m845 729v7.5a10.5 10.5 0 0 0 21 0v-7.5z" opacity=".15" transform="translate(-31.68686 -32.28722)"/></svg>