<svg height="115" viewBox="0 0 128 115" width="128" xmlns="http://www.w3.org/2000/svg"><g fill="#cbcbcb"><path d="m45.1 7c.1 0 .3 0 .4-.1.9-.6 1.7-1.2 2.6-1.7.3-.2.4-.6.2-.9s-.6-.4-.9-.2c-.9.5-1.8 1.1-2.7 1.7-.3.2-.4.6-.1.9.1.2.3.3.5.3"/><path d="m88.3 5c1 .5 1.9 1.1 2.8 1.9.7.6 1.3 1.2 1.9 1.9.1.1.3.2.5.2.1 0 .3-.1.4-.2.3-.2.3-.6.1-.9-.6-.7-1.3-1.4-2.1-2-1-.8-2-1.5-3.1-2-.3-.2-.7 0-.8.3s0 .7.3.8"/><path d="m68.2 10.5c-.2.3-.1.7.2.9.1.1.2.1.3.1.2 0 .4-.1.6-.3.9-1.6 2.3-3.1 4.1-4.4.3-.2.4-.6.2-.9s-.6-.4-.9-.2c-2 1.4-3.6 3.1-4.5 4.8"/><path d="m98 23c-.3 0-.7.2-.7.6-.2 1.9-.6 4-1.1 6.1-.1.3.1.7.4.8h.2c.3 0 .5-.2.6-.5.6-2.2 1-4.3 1.2-6.3 0-.3-.2-.6-.6-.7"/><path d="m77.9 9.1c.1.2.3.3.5.3.1 0 .2 0 .3-.1.3-.2.4-.6.2-.9-1.1-1.8-2.6-3.4-4.5-4.8-.3-.2-.7-.1-.9.1-.2.3-.1.7.1.9 1.9 1.4 3.3 2.9 4.3 4.5"/><path d="m77.5 4.6h.2c1.6-.5 3.3-.8 4.9-.8h1.1c.4 0 .7-.2.7-.6 0-.3-.2-.7-.6-.7s-.8-.1-1.2-.1c-1.7 0-3.5.3-5.3.9-.3.1-.5.5-.4.8s.3.5.6.5"/><path d="m76.8 18.4c-.3.2-.4.6-.2.9.1.2.3.3.5.3.1 0 .2 0 .3-.1 2-1.2 3.1-3.3 3.1-5.7v-.2c0-.3-.3-.6-.6-.6s-.6.3-.6.6v.2c0 1.9-.9 3.6-2.5 4.6"/><path d="m68.8 16.2c-.1-.2-.2-.5-.3-.7-.1-.3-.4-.5-.8-.4-.3.1-.5.4-.4.8.1.3.2.6.4.9 1 1.9 2.6 3.2 4.5 3.6h.1c.3 0 .6-.2.6-.5.1-.3-.1-.7-.5-.8-1.6-.3-2.9-1.3-3.6-2.9"/><path d="m97.3 18.7c0 .3.3.6.6.6h.1c.3 0 .6-.3.6-.7-.2-2.3-.8-4.4-1.7-6.3-.1-.3-.5-.5-.8-.3-.3.1-.5.5-.3.8.8 1.8 1.3 3.8 1.5 5.9"/><path d="m63.4 1.3c2.1.1 4.1.6 6 1.2h.2c.3 0 .5-.2.6-.4.1-.3 0-.7-.4-.8-2-.7-4.1-1.2-6.4-1.3-.3 0-.7.2-.7.6.1.3.4.6.7.7"/><path d="m52.3 3.1h.2c2-.8 4-1.3 6-1.6.3-.1.6-.4.5-.7s-.4-.6-.7-.5c-2.1.3-4.2.9-6.2 1.7-.3.1-.5.5-.4.8.1.1.4.3.6.3"/><path d="m118.8 107.3c-.1 1-.9 1.8-1.9 1.8h-104.8c-.9 0-1.5-.6-1.6-1.5l-5.2-54.1c-.1-1 .8-2 1.8-2h.6l113.9.1c1.4 0 2.5 1.3 2.4 2.5zm-31.8-58.2s1.1-1.8 2.6-4.3c.2-.3.6-.4.9-.2s.4.6.2.9c-1.5 2.6-2.6 4.3-2.6 4.4-.1.2-.3.3-.5.3-.1 0-.2 0-.3-.1-.4-.3-.5-.7-.3-1zm36.6-1.8h-1.6v-8.6c0-2-1.6-3.6-3.6-3.6h-22.6c-.5 1.3-1.1 2.7-1.9 4.2-.1.2-.3.4-.6.4-.1 0-.2 0-.3-.1-.3-.2-.4-.5-.3-.8.6-1.3 1.2-2.5 1.6-3.7h-54l-3.2-5.1c-.6-1-1.6-1.5-2.8-1.5h-26c-1.4 0-2.6 1.2-2.6 2.6v4.1 1.5 10.9h-1c-2.4.9-4.1 3.3-3.8 6.1l5.4 55.1c.3 3 2.8 5.3 5.8 5.3h104.4c3 0 5.6-2.3 5.8-5.3l5.4-55.1c.8-3.1-1.2-5.8-4.1-6.4z"/><path d="m38.5 11.6 4.2-2c.6-.3.8-1 .6-1.5-.3-.6-1-.8-1.5-.6l-4.2 2c-.6.2-.9.9-.6 1.5s1 .8 1.5.6z"/><path d="m37.3 8.3 3.7-1.7.3-2.9c-.1-1.3-.7-1.9-1.5-2-.9-.2-3.5.7-2.5 2.4-1.4-1.6-2.8-.6-3.4-.1-.7.6-.7 2.3.5 3.1z"/><path d="m45.5 12.4-2.5-1.7-3.7 1.7-1 2.9c-.2 1.4 1.2 2.6 2 2.4s2.5-.5 2.2-2.6c.8 1.8 3.1.5 3.6-.3.4-.7.3-1.5-.6-2.4z"/></g></svg>