<?xml version="1.0" encoding="UTF-8"?>
<svg width="95px" height="106px" viewBox="0 0 95 106" version="1.1" xmlns="http://www.w3.org/2000/svg" xmlns:xlink="http://www.w3.org/1999/xlink">
    <title>Artboard</title>
    <g id="Artboard" stroke="none" stroke-width="1" fill="none" fill-rule="evenodd">
        <g id="noun_Arrow-Left_3149426" transform="translate(44.842444, 48.985188) scale(1, -1) rotate(20.000000) translate(-44.842444, -48.985188) translate(15.342444, -1.014812)" fill="#B2B6BC" fill-rule="nonzero">
            <path d="M5.5108067,92.173913 C12.3077517,91.8714163 46.3604889,89.8100582 49.2580817,78.9010119 C50.4157019,74.5428685 46.8507418,69.987623 38.3563316,64.972473 C30.8353426,60.5335725 29.9455195,57.7768825 30.0843772,56.52857 C30.4938659,52.8493333 39.5847976,49.8024655 46.2202143,47.5768558 C53.576841,45.1117124 58.4340284,43.4828837 58.3830194,40.1266752 C58.3461796,37.6232065 55.6653749,35.8397074 48.8245055,33.7646618 C41.2312538,31.4610325 40.3910227,29.4530562 40.3145092,28.8918632 C40.0042047,26.6115029 45.8999913,22.9883855 49.8035943,20.5916804 C55.0688534,17.3559231 59.2275012,14.7990726 58.5530493,11.5455214 C58.0642133,9.19535421 49.2580817,0.98961612 43.31412,0 L43.31412,0 C47.7405649,0.737763608 54.3717308,12.0273262 54.6763677,12.2956039 C54.1436074,13.459053 50.1394033,15.9187213 47.7108097,17.4120424 C41.8603644,21.005047 35.8129678,24.7226091 36.4477461,29.3859868 C36.8912407,32.6409068 40.4519501,35.1758571 47.65555,37.3617726 C52.3242875,38.778443 53.8446381,39.757109 54.3235557,40.1814257 C53.1290956,41.2750679 48.2520715,42.9107405 44.9421562,44.019439 C36.4760844,46.8582548 26.8821476,50.0734807 26.2062787,56.1275223 C25.7698687,60.0271299 28.9862675,63.8610369 36.3230575,68.1918051 C42.8748761,72.0599312 46.1266978,75.5311158 45.4820011,77.9675151 C43.8752186,84.0106066 21.0373699,87.7144811 5.33227531,88.4125505 L5.5108067,92.173913 Z" id="Path"></path>
            <polygon id="Path" points="17.8546335 99.0869565 0.698128968 90.5418869 13.4473755 78.3478261 15.5624993 80.3907422 5.72792348 89.7994016 19.2347143 96.527905"></polygon>
        </g>
    </g>
</svg>