<svg height="56" viewBox="0 0 288.624 56" xmlns="http://www.w3.org/2000/svg"><path d="m9.6 0h-5.04v-30.96l-.72-5.04h21.24l-.48 3.84h-15.48l.48 4.57v6.374h12.96v3.456h-12.96zm29.928.408a11.175 11.175 0 0 1 -4.86-1.044 11.407 11.407 0 0 1 -3.78-2.88 13.267 13.267 0 0 1 -2.46-4.344 16.3 16.3 0 0 1 -.876-5.412 16.719 16.719 0 0 1 .84-5.388 12.773 12.773 0 0 1 2.4-4.3 10.962 10.962 0 0 1 3.78-2.832 11.733 11.733 0 0 1 4.956-1.02 11.477 11.477 0 0 1 4.872 1.02 11.237 11.237 0 0 1 3.792 2.832 13.2 13.2 0 0 1 2.472 4.3 15.9 15.9 0 0 1 .888 5.388 16.72 16.72 0 0 1 -.852 5.412 13.17 13.17 0 0 1 -2.412 4.344 11.06 11.06 0 0 1 -3.788 2.88 11.583 11.583 0 0 1 -4.972 1.044zm7.464-13.032a17.378 17.378 0 0 0 -.42-3.816 10.825 10.825 0 0 0 -1.332-3.348 7.373 7.373 0 0 0 -2.352-2.388 6.325 6.325 0 0 0 -3.456-.912 6.589 6.589 0 0 0 -3.312.792 6.708 6.708 0 0 0 -2.28 2.112 9.416 9.416 0 0 0 -1.308 3 14.2 14.2 0 0 0 -.42 3.456 17.377 17.377 0 0 0 .42 3.816 10.856 10.856 0 0 0 1.32 3.336 7.226 7.226 0 0 0 2.328 2.364 6.329 6.329 0 0 0 3.444.9 6.539 6.539 0 0 0 3.288-.788 6.984 6.984 0 0 0 2.3-2.1 9.161 9.161 0 0 0 1.348-2.992 13.726 13.726 0 0 0 .432-3.432zm24.216-10.128a4.956 4.956 0 0 0 -1.9.384 8.158 8.158 0 0 0 -1.8 1.032 11.088 11.088 0 0 0 -1.632 1.512 17.37 17.37 0 0 0 -1.412 1.824v18h-4.564v-26.4l4.56-.48v5.4l2.4-4.2a6.349 6.349 0 0 1 .78-.4 7.24 7.24 0 0 1 1.068-.36q.6-.156 1.284-.264a8.99 8.99 0 0 1 1.4-.108 7.265 7.265 0 0 1 1.812.192 6.9 6.9 0 0 1 1.092.36l-.24 3.984q-.36-.12-1.08-.3a7.45 7.45 0 0 0 -1.768-.176zm13.608 22.752h-4.56v-26.4l4.56-.48v4.392l1.464-2.568a9.045 9.045 0 0 1 1.08-.6 10.57 10.57 0 0 1 1.464-.564 14.8 14.8 0 0 1 1.752-.42 10.848 10.848 0 0 1 1.92-.168 6.907 6.907 0 0 1 4.368 1.308 5.942 5.942 0 0 1 2.184 3.348l1.824-2.808a8.982 8.982 0 0 1 2.376-1.26 9.824 9.824 0 0 1 3.528-.588 7.258 7.258 0 0 1 3.12.612 5.425 5.425 0 0 1 2.124 1.764 7.761 7.761 0 0 1 1.212 2.784 15.957 15.957 0 0 1 .384 3.648v18h-4.56v-17.76a12.588 12.588 0 0 0 -.18-2.268 4.3 4.3 0 0 0 -.624-1.632 2.7 2.7 0 0 0 -1.188-.984 4.635 4.635 0 0 0 -1.848-.324 4.794 4.794 0 0 0 -1.452.24 9.8 9.8 0 0 0 -1.524.636 12.725 12.725 0 0 0 -1.5.912q-.732.516-1.38 1.044.072.7.084 1.164t.012 1.212v17.76h-4.556v-17.76a7.134 7.134 0 0 0 -.864-3.9 3.433 3.433 0 0 0 -3.1-1.308 6.015 6.015 0 0 0 -1.536.216 9.246 9.246 0 0 0 -1.62.6 14.488 14.488 0 0 0 -1.572.876 13.049 13.049 0 0 0 -1.392 1.02zm50.856-22.056a9.568 9.568 0 0 0 -1.029-.432q-.6-.216-1.245-.384a12.153 12.153 0 0 0 -1.3-.264 8.719 8.719 0 0 0 -1.257-.1 6.378 6.378 0 0 0 -3.591.756 2.609 2.609 0 0 0 -1.053 2.268 2.2 2.2 0 0 0 .695 1.668 6.945 6.945 0 0 0 1.8 1.188 23.36 23.36 0 0 0 2.456 1 21.826 21.826 0 0 1 2.647 1.116 17.7 17.7 0 0 1 1.893 1.08 8.9 8.9 0 0 1 1.712 1.46 7.213 7.213 0 0 1 1.246 1.9 5.688 5.688 0 0 1 .479 2.376 9.336 9.336 0 0 1 -.816 4.1 7.3 7.3 0 0 1 -2.22 2.724 9.285 9.285 0 0 1 -3.289 1.528 16.235 16.235 0 0 1 -4.02.48 12.5 12.5 0 0 1 -1.848-.156 18.943 18.943 0 0 1 -2.064-.432 16.221 16.221 0 0 1 -1.968-.66 8.261 8.261 0 0 1 -1.56-.816l1.584-3.168a9.563 9.563 0 0 0 1.368.54q.792.252 1.632.444t1.668.3a11.545 11.545 0 0 0 1.476.108 9.71 9.71 0 0 0 2.132-.228 5.493 5.493 0 0 0 1.8-.732 3.83 3.83 0 0 0 1.244-1.308 3.879 3.879 0 0 0 .468-1.98 3.169 3.169 0 0 0 -.372-1.56 4.053 4.053 0 0 0 -1.008-1.188 8.516 8.516 0 0 0 -1.476-.948q-.84-.432-1.776-.828t-1.92-.816a18.507 18.507 0 0 1 -1.872-.924 16.532 16.532 0 0 1 -1.62-1.056 7.881 7.881 0 0 1 -1.38-1.3 5.982 5.982 0 0 1 -.96-1.62 5.49 5.49 0 0 1 -.36-2.052 6.989 6.989 0 0 1 .648-3.132 5.525 5.525 0 0 1 1.824-2.124 8.143 8.143 0 0 1 2.832-1.2 16.157 16.157 0 0 1 3.648-.384 11.227 11.227 0 0 1 1.8.144 15.621 15.621 0 0 1 1.7.372 9.786 9.786 0 0 1 1.488.54 9.358 9.358 0 0 1 1.152.624zm26.328-4.344 4.56-.48v26.88h-4.56v-3.912l-1.464 2.568q-.432.288-1.02.6a9.013 9.013 0 0 1 -1.332.564 12.111 12.111 0 0 1 -1.632.42 10.058 10.058 0 0 1 -1.872.168 7.253 7.253 0 0 1 -3.3-.7 6.127 6.127 0 0 1 -2.268-1.944 8.737 8.737 0 0 1 -1.32-2.964 15.263 15.263 0 0 1 -.432-3.732v-17.468l4.56-.48v17.952a6.828 6.828 0 0 0 1.044 4.044 3.76 3.76 0 0 0 3.276 1.452 5.054 5.054 0 0 0 1.608-.264 9.316 9.316 0 0 0 1.536-.672 13.059 13.059 0 0 0 1.4-.888q.66-.48 1.212-.936zm26.616 3.648a4.956 4.956 0 0 0 -1.9.384 8.159 8.159 0 0 0 -1.8 1.032 11.088 11.088 0 0 0 -1.632 1.512 17.368 17.368 0 0 0 -1.412 1.824v18h-4.56v-26.4l4.56-.48v5.4l2.4-4.2a6.35 6.35 0 0 1 .78-.4 7.24 7.24 0 0 1 1.068-.36q.6-.156 1.284-.264a8.99 8.99 0 0 1 1.4-.108 7.265 7.265 0 0 1 1.812.192 6.9 6.9 0 0 1 1.092.36l-.24 3.984q-.36-.12-1.08-.3a7.45 7.45 0 0 0 -1.772-.176zm27.432 19.652a12.64 12.64 0 0 1 -1.632 1.416 10.213 10.213 0 0 1 -1.968 1.116 11.433 11.433 0 0 1 -2.388.72 15.469 15.469 0 0 1 -2.916.252 12.074 12.074 0 0 1 -5.444-1.124 10.288 10.288 0 0 1 -3.684-3.024 12.584 12.584 0 0 1 -2.088-4.344 19.554 19.554 0 0 1 -.66-5.112 18.3 18.3 0 0 1 .312-3.372 16.043 16.043 0 0 1 .936-3.18 13.708 13.708 0 0 1 1.56-2.808 10.329 10.329 0 0 1 2.184-2.232 10.169 10.169 0 0 1 2.82-1.476 10.618 10.618 0 0 1 3.468-.54 11.013 11.013 0 0 1 4.488.84 8.436 8.436 0 0 1 3.144 2.352 9.834 9.834 0 0 1 1.848 3.624 17.1 17.1 0 0 1 .6 4.68q0 .744-.048 1.632t-.148 1.68h-16.608a11.114 11.114 0 0 0 .492 3.36 8.82 8.82 0 0 0 1.38 2.724 6.431 6.431 0 0 0 2.148 1.824 5.984 5.984 0 0 0 2.82.66 13.794 13.794 0 0 0 2.676-.228 11.416 11.416 0 0 0 1.956-.552 7.634 7.634 0 0 0 1.332-.66q.516-.336.8-.528zm-3.984-12.5q.024-.264.036-.528t.012-.528a9.621 9.621 0 0 0 -.312-2.52 5.882 5.882 0 0 0 -.948-2 4.39 4.39 0 0 0 -1.62-1.332 5.258 5.258 0 0 0 -2.328-.48 6.633 6.633 0 0 0 -2.748.516 6.2 6.2 0 0 0 -1.92 1.32 6.813 6.813 0 0 0 -1.248 1.764 10.767 10.767 0 0 0 -.708 1.824l-1.248 2.616 4.268-.652z" fill="#111827" transform="translate(72 46)"/><rect fill="#059669" height="56" rx="1" width="56"/><path d="m14.711 17.05a44.755 44.755 0 0 0 10.346-8.716c-2.457-.434-6.464.959-10.687 3.121-5.895 3.427-14.443 9.322-14.37 10.259.019.237.46.508 1.2.771a2.654 2.654 0 0 0 2.012-.1l2.373-1.109-1.5 1.513a.24.24 0 0 0 .133.406 26.726 26.726 0 0 0 11.126-.562 2.658 2.658 0 0 0 1.695-1.547l1.19-2.95-.094 3a.24.24 0 0 0 .348.221 21.172 21.172 0 0 0 1.911-1.1 2.655 2.655 0 0 0 1.177-1.8l.61-3.757.628 3.245a.24.24 0 0 0 .4.13c2.561-2.368 4.132-5.061 4.129-7.04a29.419 29.419 0 0 0 7.162-10.711.24.24 0 0 0 -.418-.224c-2.558 3.477-5.53 9.285-19.371 16.95z" fill="#fff" transform="matrix(-.96114615 .27603998 -.27603998 -.96114615 47.563 34.474)"/><path d="m.537 21.744 1.073-11.465h-.73a.967.967 0 0 0 -.577.143.959.959 0 0 1 -.22.143q-.083-.001-.083-.176a1.017 1.017 0 0 1 .083-.4 2.086 2.086 0 0 1 .441-.725.857.857 0 0 1 .628-.286h.577l.014-.242q.275-2.307.628-3.942a11.934 11.934 0 0 1 .942-2.825 3.683 3.683 0 0 1 .957-1.31 3.112 3.112 0 0 1 1.015-.483q.3-.088.413-.132a.508.508 0 0 1 .152-.044q.069 0 .069.11a1.353 1.353 0 0 1 -.27.675.813.813 0 0 1 -.249.315.664.664 0 0 1 -.323.063 1.108 1.108 0 0 0 -.709.3 2.592 2.592 0 0 0 -.565.846 10.163 10.163 0 0 0 -.634 2.4q-.239 1.482-.459 3.591l-.069.681h.744a.973.973 0 0 0 .571-.143.808.808 0 0 1 .24-.143q.083 0 .083.176a1.47 1.47 0 0 1 -.083.4q-.386 1.011-1.072 1.011h-.591l-.763 10.156c-.389 4.101-1.353 2.608-1.233 1.306z" fill="#059669" transform="matrix(.857 .515 -.515 .857 30.368 14.854)"/></svg>
